<?xml version="1.0" encoding="UTF-8" standalone="no"?>
<!DOCTYPE svg PUBLIC "-//W3C//DTD SVG 1.1//EN"
 "http://www.w3.org/Graphics/SVG/1.1/DTD/svg11.dtd">
<!-- Generated by graphviz version 2.43.0 (0)
 -->
<!-- Title: network_topology Pages: 1 -->
<svg width="1166pt" height="425pt"
 viewBox="0.00 0.00 1165.50 425.00" xmlns="http://www.w3.org/2000/svg" xmlns:xlink="http://www.w3.org/1999/xlink">
<g id="graph0" class="graph" transform="scale(1 1) rotate(0) translate(4 421)">
<title>network_topology</title>
<polygon fill="white" stroke="transparent" points="-4,4 -4,-421 1161.5,-421 1161.5,4 -4,4"/>
<g id="clust1" class="cluster">
<title>cluster_cluster_rke2_rancher_de77c71a50</title>
<polygon fill="none" stroke="#777777" points="104,-8 104,-106 458,-106 458,-8 104,-8"/>
<text text-anchor="middle" x="281" y="-90.8" font-family="Times,serif" font-size="14.00">RKE2 / Rancher cluster</text>
</g>
<!-- host_bastion1_fd65cf69ce -->
<g id="node1" class="node">
<title>host_bastion1_fd65cf69ce</title>
<path fill="#d8e8ff" stroke="black" d="M636,-310C636,-310 580,-310 580,-310 574,-310 568,-304 568,-298 568,-298 568,-281 568,-281 568,-275 574,-269 580,-269 580,-269 636,-269 636,-269 642,-269 648,-275 648,-281 648,-281 648,-298 648,-298 648,-304 642,-310 636,-310"/>
<text text-anchor="middle" x="608" y="-298" font-family="Helvetica,sans-Serif" font-size="10.00">bastion1</text>
<text text-anchor="middle" x="608" y="-287" font-family="Helvetica,sans-Serif" font-size="10.00">multi&#45;homed</text>
<text text-anchor="middle" x="608" y="-276" font-family="Helvetica,sans-Serif" font-size="10.00">not a router</text>
</g>
<!-- network_customer_b6c4586387 -->
<g id="node6" class="node">
<title>network_customer_b6c4586387</title>
<path fill="#eeeeee" stroke="black" d="M317,-205C317,-205 117,-205 117,-205 111,-205 105,-199 105,-193 105,-193 105,-154 105,-154 105,-148 111,-142 117,-142 117,-142 317,-142 317,-142 323,-142 329,-148 329,-154 329,-154 329,-193 329,-193 329,-199 323,-205 317,-205"/>
<text text-anchor="middle" x="217" y="-193" font-family="Helvetica,sans-Serif" font-size="10.00">Customer</text>
<text text-anchor="middle" x="217" y="-182" font-family="Helvetica,sans-Serif" font-size="10.00">198.51.100.0/28</text>
<text text-anchor="middle" x="217" y="-171" font-family="Helvetica,sans-Serif" font-size="10.00">VMware: EXAMPLE_CUSTOMER_NETWORK</text>
<text text-anchor="middle" x="217" y="-160" font-family="Helvetica,sans-Serif" font-size="10.00">bastion: 198.51.100.4</text>
<text text-anchor="middle" x="217" y="-149" font-family="Helvetica,sans-Serif" font-size="10.00">gateway: 198.51.100.1</text>
</g>
<!-- host_bastion1_fd65cf69ce&#45;&gt;network_customer_b6c4586387 -->
<g id="edge7" class="edge">
<title>host_bastion1_fd65cf69ce&#45;&gt;network_customer_b6c4586387</title>
<path fill="none" stroke="black" d="M567.53,-279.09C509.09,-265.5 408,-242 408,-242 408,-242 354.09,-222.95 303.56,-205.09"/>
</g>
<!-- network_downstream_vlan565_8ed6786137 -->
<g id="node8" class="node">
<title>network_downstream_vlan565_8ed6786137</title>
<path fill="#eeeeee" stroke="black" d="M728.5,-199.5C728.5,-199.5 487.5,-199.5 487.5,-199.5 481.5,-199.5 475.5,-193.5 475.5,-187.5 475.5,-187.5 475.5,-159.5 475.5,-159.5 475.5,-153.5 481.5,-147.5 487.5,-147.5 487.5,-147.5 728.5,-147.5 728.5,-147.5 734.5,-147.5 740.5,-153.5 740.5,-159.5 740.5,-159.5 740.5,-187.5 740.5,-187.5 740.5,-193.5 734.5,-199.5 728.5,-199.5"/>
<text text-anchor="middle" x="608" y="-187.5" font-family="Helvetica,sans-Serif" font-size="10.00">VLAN 565</text>
<text text-anchor="middle" x="608" y="-176.5" font-family="Helvetica,sans-Serif" font-size="10.00">203.0.113.32/27</text>
<text text-anchor="middle" x="608" y="-165.5" font-family="Helvetica,sans-Serif" font-size="10.00">VMware: EXAMPLE_DOWNSTREAM_NETWORK_565</text>
<text text-anchor="middle" x="608" y="-154.5" font-family="Helvetica,sans-Serif" font-size="10.00">bastion: 203.0.113.34</text>
</g>
<!-- host_bastion1_fd65cf69ce&#45;&gt;network_downstream_vlan565_8ed6786137 -->
<g id="edge13" class="edge">
<title>host_bastion1_fd65cf69ce&#45;&gt;network_downstream_vlan565_8ed6786137</title>
<path fill="none" stroke="black" d="M608,-268.9C608,-249.8 608,-220.68 608,-199.83"/>
</g>
<!-- network_downstream_vlan566_d2bd8ff235 -->
<g id="node11" class="node">
<title>network_downstream_vlan566_d2bd8ff235</title>
<path fill="#eeeeee" stroke="black" d="M1025.5,-199.5C1025.5,-199.5 784.5,-199.5 784.5,-199.5 778.5,-199.5 772.5,-193.5 772.5,-187.5 772.5,-187.5 772.5,-159.5 772.5,-159.5 772.5,-153.5 778.5,-147.5 784.5,-147.5 784.5,-147.5 1025.5,-147.5 1025.5,-147.5 1031.5,-147.5 1037.5,-153.5 1037.5,-159.5 1037.5,-159.5 1037.5,-187.5 1037.5,-187.5 1037.5,-193.5 1031.5,-199.5 1025.5,-199.5"/>
<text text-anchor="middle" x="905" y="-187.5" font-family="Helvetica,sans-Serif" font-size="10.00">VLAN 566</text>
<text text-anchor="middle" x="905" y="-176.5" font-family="Helvetica,sans-Serif" font-size="10.00">203.0.113.64/27</text>
<text text-anchor="middle" x="905" y="-165.5" font-family="Helvetica,sans-Serif" font-size="10.00">VMware: EXAMPLE_DOWNSTREAM_NETWORK_566</text>
<text text-anchor="middle" x="905" y="-154.5" font-family="Helvetica,sans-Serif" font-size="10.00">bastion: 203.0.113.66</text>
</g>
<!-- host_bastion1_fd65cf69ce&#45;&gt;network_downstream_vlan566_d2bd8ff235 -->
<g id="edge14" class="edge">
<title>host_bastion1_fd65cf69ce&#45;&gt;network_downstream_vlan566_d2bd8ff235</title>
<path fill="none" stroke="black" d="M648.05,-273.13C697.22,-254.25 781.25,-222 839.78,-199.53"/>
</g>
<!-- host_prom1_abf2e7bd7a -->
<g id="node2" class="node">
<title>host_prom1_abf2e7bd7a</title>
<path fill="#d8e8ff" stroke="black" d="M68,-52C68,-52 12,-52 12,-52 6,-52 0,-46 0,-40 0,-40 0,-28 0,-28 0,-22 6,-16 12,-16 12,-16 68,-16 68,-16 74,-16 80,-22 80,-28 80,-28 80,-40 80,-40 80,-46 74,-52 68,-52"/>
<text text-anchor="middle" x="40" y="-37" font-family="Helvetica,sans-Serif" font-size="10.00">prom1</text>
<text text-anchor="middle" x="40" y="-26" font-family="Helvetica,sans-Serif" font-size="10.00">198.51.100.6</text>
</g>
<!-- host_rancher1_d47e6b0e07 -->
<g id="node3" class="node">
<title>host_rancher1_d47e6b0e07</title>
<path fill="#d8e8ff" stroke="black" d="M201.5,-52C201.5,-52 124.5,-52 124.5,-52 118.5,-52 112.5,-46 112.5,-40 112.5,-40 112.5,-28 112.5,-28 112.5,-22 118.5,-16 124.5,-16 124.5,-16 201.5,-16 201.5,-16 207.5,-16 213.5,-22 213.5,-28 213.5,-28 213.5,-40 213.5,-40 213.5,-46 207.5,-52 201.5,-52"/>
<text text-anchor="middle" x="163" y="-37" font-family="Helvetica,sans-Serif" font-size="10.00">rancher1 primary</text>
<text text-anchor="middle" x="163" y="-26" font-family="Helvetica,sans-Serif" font-size="10.00">198.51.100.11</text>
</g>
<!-- host_rancher2_bcc55a020f -->
<g id="node4" class="node">
<title>host_rancher2_bcc55a020f</title>
<path fill="#d8e8ff" stroke="black" d="M320,-52C320,-52 258,-52 258,-52 252,-52 246,-46 246,-40 246,-40 246,-28 246,-28 246,-22 252,-16 258,-16 258,-16 320,-16 320,-16 326,-16 332,-22 332,-28 332,-28 332,-40 332,-40 332,-46 326,-52 320,-52"/>
<text text-anchor="middle" x="289" y="-37" font-family="Helvetica,sans-Serif" font-size="10.00">rancher2</text>
<text text-anchor="middle" x="289" y="-26" font-family="Helvetica,sans-Serif" font-size="10.00">198.51.100.12</text>
</g>
<!-- host_rancher3_bbbf0c319b -->
<g id="node5" class="node">
<title>host_rancher3_bbbf0c319b</title>
<path fill="#d8e8ff" stroke="black" d="M438,-52C438,-52 376,-52 376,-52 370,-52 364,-46 364,-40 364,-40 364,-28 364,-28 364,-22 370,-16 376,-16 376,-16 438,-16 438,-16 444,-16 450,-22 450,-28 450,-28 450,-40 450,-40 450,-46 444,-52 438,-52"/>
<text text-anchor="middle" x="407" y="-37" font-family="Helvetica,sans-Serif" font-size="10.00">rancher3</text>
<text text-anchor="middle" x="407" y="-26" font-family="Helvetica,sans-Serif" font-size="10.00">198.51.100.13</text>
</g>
<!-- network_customer_b6c4586387&#45;&gt;host_prom1_abf2e7bd7a -->
<g id="edge9" class="edge">
<title>network_customer_b6c4586387&#45;&gt;host_prom1_abf2e7bd7a</title>
<path fill="none" stroke="black" d="M161.46,-141.97C129.65,-124.49 96,-106 96,-106 96,-106 70.13,-73.2 53.56,-52.19"/>
</g>
<!-- network_customer_b6c4586387&#45;&gt;host_rancher1_d47e6b0e07 -->
<g id="edge10" class="edge">
<title>network_customer_b6c4586387&#45;&gt;host_rancher1_d47e6b0e07</title>
<path fill="none" stroke="black" d="M205.02,-141.98C194.14,-114.29 178.5,-74.47 169.69,-52.04"/>
</g>
<!-- network_customer_b6c4586387&#45;&gt;host_rancher2_bcc55a020f -->
<g id="edge11" class="edge">
<title>network_customer_b6c4586387&#45;&gt;host_rancher2_bcc55a020f</title>
<path fill="none" stroke="black" d="M232.98,-141.98C247.48,-114.29 268.33,-74.47 280.08,-52.04"/>
</g>
<!-- network_customer_b6c4586387&#45;&gt;host_rancher3_bbbf0c319b -->
<g id="edge12" class="edge">
<title>network_customer_b6c4586387&#45;&gt;host_rancher3_bbbf0c319b</title>
<path fill="none" stroke="black" d="M277.13,-141.97C311.57,-124.49 348,-106 348,-106 348,-106 375.26,-73.2 392.72,-52.19"/>
</g>
<!-- network_customer_b6c4586387&#45;&gt;network_downstream_vlan565_8ed6786137 -->
<g id="edge5" class="edge">
<title>network_customer_b6c4586387&#45;&gt;network_downstream_vlan565_8ed6786137</title>
<path fill="none" stroke="black" stroke-dasharray="5,2" d="M329.04,-173.5C374.63,-173.5 427.67,-173.5 475.18,-173.5"/>
<text text-anchor="middle" x="402.25" y="-179.3" font-family="Helvetica,sans-Serif" font-size="9.00">external routing / firewall</text>
</g>
<!-- network_customer_b6c4586387&#45;&gt;network_downstream_vlan566_d2bd8ff235 -->
<g id="edge6" class="edge">
<title>network_customer_b6c4586387&#45;&gt;network_downstream_vlan566_d2bd8ff235</title>
<path fill="none" stroke="black" stroke-dasharray="5,2" d="M324.09,-205.06C370.97,-218.88 415.5,-232 415.5,-232 415.5,-232 530.5,-232 530.5,-232 530.5,-232 757,-205 757,-205 757,-205 767.44,-202.78 782.78,-199.51"/>
<text text-anchor="middle" x="473" y="-234.8" font-family="Helvetica,sans-Serif" font-size="9.00">external routing / firewall</text>
</g>
<!-- network_management_288965a1f2 -->
<g id="node7" class="node">
<title>network_management_288965a1f2</title>
<path fill="#eeeeee" stroke="black" d="M716.5,-417C716.5,-417 499.5,-417 499.5,-417 493.5,-417 487.5,-411 487.5,-405 487.5,-405 487.5,-377 487.5,-377 487.5,-371 493.5,-365 499.5,-365 499.5,-365 716.5,-365 716.5,-365 722.5,-365 728.5,-371 728.5,-377 728.5,-377 728.5,-405 728.5,-405 728.5,-411 722.5,-417 716.5,-417"/>
<text text-anchor="middle" x="608" y="-405" font-family="Helvetica,sans-Serif" font-size="10.00">Management</text>
<text text-anchor="middle" x="608" y="-394" font-family="Helvetica,sans-Serif" font-size="10.00">192.0.2.0/24</text>
<text text-anchor="middle" x="608" y="-383" font-family="Helvetica,sans-Serif" font-size="10.00">VMware: EXAMPLE_MANAGEMENT_NETWORK</text>
<text text-anchor="middle" x="608" y="-372" font-family="Helvetica,sans-Serif" font-size="10.00">bastion: 192.0.2.10</text>
</g>
<!-- network_management_288965a1f2&#45;&gt;host_bastion1_fd65cf69ce -->
<g id="edge8" class="edge">
<title>network_management_288965a1f2&#45;&gt;host_bastion1_fd65cf69ce</title>
<path fill="none" stroke="black" d="M608,-364.89C608,-347.97 608,-325.95 608,-310.27"/>
</g>
<!-- external_endpoint_gateway_vlan565_97aa5a5c3b -->
<g id="node9" class="node">
<title>external_endpoint_gateway_vlan565_97aa5a5c3b</title>
<path fill="none" stroke="black" stroke-dasharray="5,2" d="M586,-52C586,-52 508,-52 508,-52 502,-52 496,-46 496,-40 496,-40 496,-28 496,-28 496,-22 502,-16 508,-16 508,-16 586,-16 586,-16 592,-16 598,-22 598,-28 598,-28 598,-40 598,-40 598,-46 592,-52 586,-52"/>
<text text-anchor="middle" x="547" y="-37" font-family="Helvetica,sans-Serif" font-size="10.00">External gateway</text>
<text text-anchor="middle" x="547" y="-26" font-family="Helvetica,sans-Serif" font-size="10.00">203.0.113.33</text>
</g>
<!-- network_downstream_vlan565_8ed6786137&#45;&gt;external_endpoint_gateway_vlan565_97aa5a5c3b -->
<g id="edge1" class="edge">
<title>network_downstream_vlan565_8ed6786137&#45;&gt;external_endpoint_gateway_vlan565_97aa5a5c3b</title>
<path fill="none" stroke="black" d="M596.81,-147.28C584.57,-119.68 565.27,-76.18 554.64,-52.23"/>
</g>
<!-- consumer_consumer_downstream_vlan565_dfc74929d4 -->
<g id="node10" class="node">
<title>consumer_consumer_downstream_vlan565_dfc74929d4</title>
<path fill="none" stroke="black" stroke-dasharray="5,2" d="M795.5,-54.5C795.5,-54.5 642.5,-54.5 642.5,-54.5 636.5,-54.5 630.5,-48.5 630.5,-42.5 630.5,-42.5 630.5,-25.5 630.5,-25.5 630.5,-19.5 636.5,-13.5 642.5,-13.5 642.5,-13.5 795.5,-13.5 795.5,-13.5 801.5,-13.5 807.5,-19.5 807.5,-25.5 807.5,-25.5 807.5,-42.5 807.5,-42.5 807.5,-48.5 801.5,-54.5 795.5,-54.5"/>
<text text-anchor="middle" x="719" y="-42.5" font-family="Helvetica,sans-Serif" font-size="10.00">Downstream nodes</text>
<text text-anchor="middle" x="719" y="-31.5" font-family="Helvetica,sans-Serif" font-size="10.00">DHCP 203.0.113.36&#45;203.0.113.61</text>
<text text-anchor="middle" x="719" y="-20.5" font-family="Helvetica,sans-Serif" font-size="10.00">external lifecycle</text>
</g>
<!-- network_downstream_vlan565_8ed6786137&#45;&gt;consumer_consumer_downstream_vlan565_dfc74929d4 -->
<g id="edge2" class="edge">
<title>network_downstream_vlan565_8ed6786137&#45;&gt;consumer_consumer_downstream_vlan565_dfc74929d4</title>
<path fill="none" stroke="black" d="M628.36,-147.28C649.89,-120.61 683.4,-79.09 703.08,-54.72"/>
</g>
<!-- external_endpoint_gateway_vlan566_8cbaf7cad8 -->
<g id="node12" class="node">
<title>external_endpoint_gateway_vlan566_8cbaf7cad8</title>
<path fill="none" stroke="black" stroke-dasharray="5,2" d="M936,-52C936,-52 858,-52 858,-52 852,-52 846,-46 846,-40 846,-40 846,-28 846,-28 846,-22 852,-16 858,-16 858,-16 936,-16 936,-16 942,-16 948,-22 948,-28 948,-28 948,-40 948,-40 948,-46 942,-52 936,-52"/>
<text text-anchor="middle" x="897" y="-37" font-family="Helvetica,sans-Serif" font-size="10.00">External gateway</text>
<text text-anchor="middle" x="897" y="-26" font-family="Helvetica,sans-Serif" font-size="10.00">203.0.113.65</text>
</g>
<!-- network_downstream_vlan566_d2bd8ff235&#45;&gt;external_endpoint_gateway_vlan566_8cbaf7cad8 -->
<g id="edge3" class="edge">
<title>network_downstream_vlan566_d2bd8ff235&#45;&gt;external_endpoint_gateway_vlan566_8cbaf7cad8</title>
<path fill="none" stroke="black" d="M903.53,-147.28C901.93,-119.68 899.4,-76.18 898,-52.23"/>
</g>
<!-- consumer_consumer_downstream_vlan566_30b7d29b35 -->
<g id="node13" class="node">
<title>consumer_consumer_downstream_vlan566_30b7d29b35</title>
<path fill="none" stroke="black" stroke-dasharray="5,2" d="M1145.5,-54.5C1145.5,-54.5 992.5,-54.5 992.5,-54.5 986.5,-54.5 980.5,-48.5 980.5,-42.5 980.5,-42.5 980.5,-25.5 980.5,-25.5 980.5,-19.5 986.5,-13.5 992.5,-13.5 992.5,-13.5 1145.5,-13.5 1145.5,-13.5 1151.5,-13.5 1157.5,-19.5 1157.5,-25.5 1157.5,-25.5 1157.5,-42.5 1157.5,-42.5 1157.5,-48.5 1151.5,-54.5 1145.5,-54.5"/>
<text text-anchor="middle" x="1069" y="-42.5" font-family="Helvetica,sans-Serif" font-size="10.00">Downstream nodes</text>
<text text-anchor="middle" x="1069" y="-31.5" font-family="Helvetica,sans-Serif" font-size="10.00">DHCP 203.0.113.68&#45;203.0.113.93</text>
<text text-anchor="middle" x="1069" y="-20.5" font-family="Helvetica,sans-Serif" font-size="10.00">external lifecycle</text>
</g>
<!-- network_downstream_vlan566_d2bd8ff235&#45;&gt;consumer_consumer_downstream_vlan566_30b7d29b35 -->
<g id="edge4" class="edge">
<title>network_downstream_vlan566_d2bd8ff235&#45;&gt;consumer_consumer_downstream_vlan566_30b7d29b35</title>
<path fill="none" stroke="black" d="M935.08,-147.28C966.98,-120.53 1016.7,-78.85 1045.73,-54.51"/>
</g>
</g>
</svg>
